<svg width="32" height="36" viewBox="0 0 32 36" fill="none" xmlns="http://www.w3.org/2000/svg">
<path d="M15.7503 33.75C14.5086 33.75 13.5003 32.7389 13.5003 31.4979H11.2503C11.2503 33.9806 13.2697 36 15.7503 36C18.231 36 20.2503 33.9806 20.2503 31.4979H18.0003C18.0003 32.7389 16.9921 33.75 15.7503 33.75ZM30.4724 23.5413C28.5064 21.6696 27.0032 19.7107 27.0032 13.0711C27.0032 7.47492 22.546 2.91094 16.8753 2.35898V1.125C16.8753 0.503438 16.3719 0 15.7503 0C15.1288 0 14.6253 0.503438 14.6253 1.125V2.35969C8.95463 2.91164 4.49752 7.47492 4.49752 13.0711C4.49752 19.71 2.99354 21.6696 1.0276 23.5413C0.0453364 24.4765 -0.264742 25.8905 0.236586 27.1434C0.748461 28.4231 1.98034 29.25 3.37534 29.25H28.1253C29.5203 29.25 30.7522 28.4224 31.2641 27.1427C31.7654 25.8898 31.4546 24.4765 30.4724 23.5413ZM28.1253 27H3.37534C2.37479 27 1.87487 25.842 2.5794 25.1712C5.03049 22.8375 6.74752 20.2254 6.74752 13.0718C6.74752 8.33414 10.7743 4.5 15.7503 4.5C20.7256 4.5 24.7532 8.33344 24.7532 13.0711C24.7532 20.1973 26.4554 22.8234 28.9213 25.1705C29.6286 25.8448 29.1217 27 28.1253 27Z" fill="#111111"/>
</svg>
