<svg width="28" height="17" viewBox="0 0 28 17" fill="none" xmlns="http://www.w3.org/2000/svg">
<path d="M27.3619 1.12795C27.5542 0.478209 27.3619 0 26.4366 0H23.3751C22.5954 0 22.2367 0.410636 22.0444 0.868053C22.0444 0.868053 20.485 4.66773 18.2811 7.13155C17.569 7.84366 17.2415 8.07237 16.8517 8.07237C16.6593 8.07237 16.3631 7.84366 16.3631 7.19392V1.12795C16.3631 0.348261 16.1447 0 15.5002 0H10.6869C10.1983 0 9.90724 0.363855 9.90724 0.70172C9.90724 1.43982 11.0092 1.61136 11.1236 3.69053V8.20232C11.1236 9.18993 10.9468 9.37185 10.557 9.37185C9.5174 9.37185 6.99121 5.55658 5.4942 1.19032C5.19273 0.343063 4.89644 0 4.11156 0H1.04998C0.176729 0 0 0.410636 0 0.868053C0 1.67893 1.03958 5.70732 4.83927 11.03C7.37065 14.6633 10.9364 16.6334 14.1799 16.6334C16.1292 16.6334 16.3683 16.1967 16.3683 15.443C16.3683 11.9708 16.1915 11.6433 17.1687 11.6433C17.621 11.6433 18.4006 11.8721 20.2199 13.6238C22.2991 15.7029 22.6421 16.6334 23.8065 16.6334H26.8681C27.7413 16.6334 28.1831 16.1967 27.9284 15.3339C27.3463 13.5198 23.4114 9.78769 23.2347 9.53819C22.7825 8.95602 22.9124 8.69612 23.2347 8.17633C23.2399 8.17113 26.9772 2.91084 27.3619 1.12795Z" fill="#01DF70"/>
</svg>
