<svg width="36" height="36" viewBox="0 0 36 36" fill="none" xmlns="http://www.w3.org/2000/svg">
<path d="M35.7522 33.8608L26.6823 24.791C26.5206 24.6293 26.3097 24.5449 26.0847 24.5449H25.3605C27.7721 21.9364 29.2486 18.4561 29.2486 14.6243C29.2486 6.54577 22.7028 0 14.6243 0C6.54577 0 0 6.54577 0 14.6243C0 22.7028 6.54577 29.2486 14.6243 29.2486C18.4561 29.2486 21.9364 27.7721 24.5449 25.3675V26.0847C24.5449 26.3097 24.6363 26.5206 24.791 26.6823L33.8608 35.7522C34.1913 36.0826 34.7256 36.0826 35.0561 35.7522L35.7522 35.0561C36.0826 34.7256 36.0826 34.1913 35.7522 33.8608ZM14.6243 26.9987C7.78321 26.9987 2.24989 21.4654 2.24989 14.6243C2.24989 7.78321 7.78321 2.24989 14.6243 2.24989C21.4654 2.24989 26.9987 7.78321 26.9987 14.6243C26.9987 21.4654 21.4654 26.9987 14.6243 26.9987Z" fill="white"/>
</svg>
